<svg width="99" height="94" viewBox="0 0 99 94" fill="none" xmlns="http://www.w3.org/2000/svg">
<path d="M49.5 0.3125H55.6875V6.50001H49.5V0.3125Z" fill="#EB5E28" fill-opacity="0.9"/>
<path d="M52.5938 6.5H58.7813V12.6875H52.5938V6.5Z" fill="#EB5E28" fill-opacity="0.9"/>
<path d="M55.6875 12.6875H61.875V18.875H55.6875V12.6875Z" fill="#EB5E28" fill-opacity="0.9"/>
<path d="M58.7812 18.875H64.9688V25.0625H58.7812V18.875Z" fill="#EB5E28" fill-opacity="0.9"/>
<path d="M43.3125 0.3125H49.5V6.50001H43.3125V0.3125Z" fill="#EB5E28" fill-opacity="0.9"/>
<path d="M40.2188 6.5H46.4063V12.6875H40.2188V6.5Z" fill="#EB5E28" fill-opacity="0.9"/>
<path d="M37.125 12.6875H43.3125V18.875H37.125V12.6875Z" fill="#EB5E28" fill-opacity="0.9"/>
<path d="M43.3125 12.6875H49.5V18.875H43.3125V12.6875Z" fill="#EB5E28" fill-opacity="0.6"/>
<path d="M49.5 12.6875H55.6875V18.875H49.5V12.6875Z" fill="#EB5E28" fill-opacity="0.4"/>
<path d="M34.0312 18.875H40.2188V25.0625H34.0312V18.875Z" fill="#EB5E28" fill-opacity="0.9"/>
<path d="M40.2188 18.875H46.4063V25.0625H40.2188V18.875Z" fill="#EB5E28" fill-opacity="0.6"/>
<path d="M46.4063 18.875H52.5938V25.0625H46.4063V18.875Z" fill="#EB5E28" fill-opacity="0.4"/>
<path d="M52.5938 18.875H58.7812V25.0625H52.5938V18.875Z" fill="#EB5E28" fill-opacity="0.2"/>
<path d="M30.9375 25.0625H37.125V31.25H30.9375V25.0625Z" fill="#EB5E28" fill-opacity="0.9"/>
<path d="M37.125 25.0625H43.3125V31.25H37.125V25.0625Z" fill="#EB5E28" fill-opacity="0.6"/>
<path d="M43.3125 25.0625H49.5V31.25H43.3125V25.0625Z" fill="#EB5E28" fill-opacity="0.4"/>
<path d="M49.5 25.0625H55.6875V31.25H49.5V25.0625Z" fill="#EB5E28" fill-opacity="0.2"/>
<path d="M27.8438 31.25H34.0313V37.4375H27.8438V31.25Z" fill="#EB5E28" fill-opacity="0.9"/>
<path d="M34.0313 31.25H40.2188V37.4375H34.0313V31.25Z" fill="#EB5E28" fill-opacity="0.6"/>
<path d="M40.2188 31.25H46.4063V37.4375H40.2188V31.25Z" fill="#EB5E28" fill-opacity="0.4"/>
<path d="M46.4063 31.25H52.5938V37.4375H46.4063V31.25Z" fill="#EB5E28" fill-opacity="0.2"/>
<path d="M24.75 37.4375H30.9375V43.625H24.75V37.4375Z" fill="#EB5E28" fill-opacity="0.9"/>
<path d="M30.9375 37.4375H37.125V43.625H30.9375V37.4375Z" fill="#EB5E28" fill-opacity="0.6"/>
<path d="M37.125 37.4375H43.3125V43.625H37.125V37.4375Z" fill="#EB5E28" fill-opacity="0.4"/>
<path d="M43.3125 37.4375H49.5V43.625H43.3125V37.4375Z" fill="#EB5E28" fill-opacity="0.2"/>
<path d="M21.6562 43.625H27.8438V49.8125H21.6562V43.625Z" fill="#EB5E28" fill-opacity="0.9"/>
<path d="M27.8438 43.625H34.0313V49.8125H27.8438V43.625Z" fill="#EB5E28" fill-opacity="0.6"/>
<path d="M34.0313 43.625H40.2188V49.8125H34.0313V43.625Z" fill="#EB5E28" fill-opacity="0.4"/>
<path d="M40.2188 43.625H46.4063V49.8125H40.2188V43.625Z" fill="#EB5E28" fill-opacity="0.2"/>
<path d="M18.5625 49.8125H24.75V56H18.5625V49.8125Z" fill="#EB5E28" fill-opacity="0.9"/>
<path d="M24.75 49.8125H30.9375V56H24.75V49.8125Z" fill="#EB5E28" fill-opacity="0.6"/>
<path d="M30.9375 49.8125H37.125V56H30.9375V49.8125Z" fill="#EB5E28" fill-opacity="0.4"/>
<path d="M37.125 49.8125H43.3125V56H37.125V49.8125Z" fill="#EB5E28" fill-opacity="0.2"/>
<path d="M15.4688 56H21.6563V62.1875H15.4688V56Z" fill="#EB5E28" fill-opacity="0.9"/>
<path d="M21.6563 56H27.8438V62.1875H21.6563V56Z" fill="#EB5E28" fill-opacity="0.6"/>
<path d="M27.8438 56H34.0313V62.1875H27.8438V56Z" fill="#EB5E28" fill-opacity="0.4"/>
<path d="M34.0313 56H40.2188V62.1875H34.0313V56Z" fill="#EB5E28" fill-opacity="0.2"/>
<path d="M12.375 62.1875H18.5625V68.375H12.375V62.1875Z" fill="#EB5E28" fill-opacity="0.9"/>
<path d="M18.5625 62.1875H24.75V68.375H18.5625V62.1875Z" fill="#EB5E28" fill-opacity="0.6"/>
<path d="M24.75 62.1875H30.9375V68.375H24.75V62.1875Z" fill="#EB5E28" fill-opacity="0.4"/>
<path d="M30.9375 62.1875H37.125V68.375H30.9375V62.1875Z" fill="#EB5E28" fill-opacity="0.2"/>
<path d="M92.8125 93.125H99V86.9375H92.8125V93.125Z" fill="#EB5E28" fill-opacity="0.9"/>
<path d="M86.625 93.125H92.8125V86.9375H86.625V93.125Z" fill="#EB5E28" fill-opacity="0.8"/>
<path d="M9.28125 68.375H15.4688V74.5625H9.28125V68.375Z" fill="#EB5E28" fill-opacity="0.9"/>
<path d="M15.4688 68.375H21.6563V74.5625H15.4688V68.375Z" fill="#EB5E28" fill-opacity="0.6"/>
<path d="M21.6563 68.375H27.8438V74.5625H21.6563V68.375Z" fill="#EB5E28" fill-opacity="0.4"/>
<path d="M27.8438 68.375H34.0313V74.5625H27.8438V68.375Z" fill="#EB5E28" fill-opacity="0.2"/>
<path d="M89.7188 86.9375H95.9063V80.75H89.7188V86.9375Z" fill="#EB5E28" fill-opacity="0.9"/>
<path d="M83.5312 86.9375H89.7188V80.75H83.5312V86.9375Z" fill="#EB5E28" fill-opacity="0.8"/>
<path d="M80.4375 93.125H86.625V86.9375H80.4375V93.125Z" fill="#EB5E28" fill-opacity="0.7"/>
<path d="M6.1875 74.5625H12.375V80.75H6.1875V74.5625Z" fill="#EB5E28" fill-opacity="0.9"/>
<path d="M12.375 74.5625H18.5625V80.75H12.375V74.5625Z" fill="#EB5E28" fill-opacity="0.6"/>
<path d="M18.5625 74.5625H24.75V80.75H18.5625V74.5625Z" fill="#EB5E28" fill-opacity="0.4"/>
<path d="M24.75 74.5625H30.9375V80.75H24.75V74.5625Z" fill="#EB5E28" fill-opacity="0.2"/>
<path d="M86.625 80.75H92.8125V74.5625H86.625V80.75Z" fill="#EB5E28" fill-opacity="0.9"/>
<path d="M80.4375 80.75H86.625V74.5625H80.4375V80.75Z" fill="#EB5E28" fill-opacity="0.8"/>
<path d="M77.3438 86.9375H83.5312V80.75H77.3438V86.9375Z" fill="#EB5E28" fill-opacity="0.7"/>
<path d="M74.25 93.125H80.4375V86.9375H74.25V93.125Z" fill="#EB5E28" fill-opacity="0.6"/>
<path d="M3.09375 80.75H9.28126V86.9375H3.09375V80.75Z" fill="#EB5E28" fill-opacity="0.9"/>
<path d="M9.28126 80.75H15.4688V86.9375H9.28126V80.75Z" fill="#EB5E28" fill-opacity="0.6"/>
<path d="M15.4688 80.75H21.6563V86.9375H15.4688V80.75Z" fill="#EB5E28" fill-opacity="0.4"/>
<path d="M21.6563 80.75H27.8438V86.9375H21.6563V80.75Z" fill="#EB5E28" fill-opacity="0.2"/>
<path d="M83.5312 74.5625H89.7188V68.375H83.5312V74.5625Z" fill="#EB5E28" fill-opacity="0.9"/>
<path d="M77.3438 74.5625H83.5312V68.375H77.3438V74.5625Z" fill="#EB5E28" fill-opacity="0.8"/>
<path d="M74.25 80.75H80.4375V74.5625H74.25V80.75Z" fill="#EB5E28" fill-opacity="0.7"/>
<path d="M71.1562 86.9375H77.3438V80.75H71.1562V86.9375Z" fill="#EB5E28" fill-opacity="0.6"/>
<path d="M68.0625 93.125H74.25V86.9375H68.0625V93.125Z" fill="#EB5E28" fill-opacity="0.5"/>
<path d="M0 86.9375H6.18751V93.125H0V86.9375Z" fill="#EB5E28" fill-opacity="0.9"/>
<path d="M6.18751 86.9375H12.375V93.125H6.18751V86.9375Z" fill="#EB5E28" fill-opacity="0.6"/>
<path d="M12.375 86.9375H18.5625V93.125H12.375V86.9375Z" fill="#EB5E28" fill-opacity="0.4"/>
<path d="M18.5625 86.9375H24.75V93.125H18.5625V86.9375Z" fill="#EB5E28" fill-opacity="0.2"/>
<path d="M80.4375 68.375H86.625V62.1875H80.4375V68.375Z" fill="#EB5E28" fill-opacity="0.9"/>
<path d="M74.25 68.375H80.4375V62.1875H74.25V68.375Z" fill="#EB5E28" fill-opacity="0.8"/>
<path d="M71.1562 74.5625H77.3438V68.375H71.1562V74.5625Z" fill="#EB5E28" fill-opacity="0.7"/>
<path d="M68.0625 80.75H74.25V74.5625H68.0625V80.75Z" fill="#EB5E28" fill-opacity="0.6"/>
<path d="M64.9688 86.9375H71.1562V80.75H64.9688V86.9375Z" fill="#EB5E28" fill-opacity="0.5"/>
<path d="M77.3438 62.1875H83.5313V56H77.3438V62.1875Z" fill="#EB5E28" fill-opacity="0.9"/>
<path d="M71.1562 62.1875H77.3438V56H71.1562V62.1875Z" fill="#EB5E28" fill-opacity="0.8"/>
<path d="M68.0625 68.375H74.25V62.1875H68.0625V68.375Z" fill="#EB5E28" fill-opacity="0.7"/>
<path d="M64.9688 74.5625H71.1562V68.375H64.9688V74.5625Z" fill="#EB5E28" fill-opacity="0.6"/>
<path d="M61.875 80.75H68.0625V74.5625H61.875V80.75Z" fill="#EB5E28" fill-opacity="0.5"/>
<path d="M74.25 56H80.4375V49.8125H74.25V56Z" fill="#EB5E28" fill-opacity="0.9"/>
<path d="M68.0625 56H74.25V49.8125H68.0625V56Z" fill="#EB5E28" fill-opacity="0.8"/>
<path d="M64.9688 62.1875H71.1562V56H64.9688V62.1875Z" fill="#EB5E28" fill-opacity="0.7"/>
<path d="M61.875 68.375H68.0625V62.1875H61.875V68.375Z" fill="#EB5E28" fill-opacity="0.6"/>
<path d="M58.7812 74.5625H64.9688V68.375H58.7812V74.5625Z" fill="#EB5E28" fill-opacity="0.5"/>
<path d="M71.1562 49.8125H77.3438V43.625H71.1562V49.8125Z" fill="#EB5E28" fill-opacity="0.9"/>
<path d="M64.9688 49.8125H71.1562V43.625H64.9688V49.8125Z" fill="#EB5E28" fill-opacity="0.8"/>
<path d="M61.875 56H68.0625V49.8125H61.875V56Z" fill="#EB5E28" fill-opacity="0.7"/>
<path d="M58.7812 62.1875H64.9688V56H58.7812V62.1875Z" fill="#EB5E28" fill-opacity="0.6"/>
<path d="M55.6875 68.375H61.875V62.1875H55.6875V68.375Z" fill="#EB5E28" fill-opacity="0.5"/>
<path d="M68.0625 43.625H74.25V37.4375H68.0625V43.625Z" fill="#EB5E28" fill-opacity="0.9"/>
<path d="M61.875 43.625H68.0625V37.4375H61.875V43.625Z" fill="#EB5E28" fill-opacity="0.8"/>
<path d="M58.7812 49.8125H64.9688V43.625H58.7812V49.8125Z" fill="#EB5E28" fill-opacity="0.7"/>
<path d="M55.6875 56H61.875V49.8125H55.6875V56Z" fill="#EB5E28" fill-opacity="0.6"/>
<path d="M52.5938 62.1875H58.7812V56H52.5938V62.1875Z" fill="#EB5E28" fill-opacity="0.5"/>
<path d="M64.9688 37.4375H71.1563V31.25H64.9688V37.4375Z" fill="#EB5E28" fill-opacity="0.9"/>
<path d="M58.7812 37.4375H64.9688V31.25H58.7812V37.4375Z" fill="#EB5E28" fill-opacity="0.8"/>
<path d="M55.6875 43.625H61.875V37.4375H55.6875V43.625Z" fill="#EB5E28" fill-opacity="0.7"/>
<path d="M52.5938 49.8125H58.7812V43.625H52.5938V49.8125Z" fill="#EB5E28" fill-opacity="0.6"/>
<path d="M49.5 56H55.6875V49.8125H49.5V56Z" fill="#EB5E28" fill-opacity="0.5"/>
<path d="M61.875 31.25H68.0625V25.0625H61.875V31.25Z" fill="#EB5E28" fill-opacity="0.9"/>
<path d="M55.6875 31.25L61.875 31.25V25.0625L55.6875 25.0625V31.25Z" fill="#EB5E28" fill-opacity="0.8"/>
<path d="M52.5938 37.4375L58.7812 37.4375V31.25L52.5938 31.25V37.4375Z" fill="#EB5E28" fill-opacity="0.7"/>
<path d="M49.5 43.625L55.6875 43.625V37.4375L49.5 37.4375V43.625Z" fill="#EB5E28" fill-opacity="0.6"/>
<path d="M46.4063 49.8125L52.5938 49.8125V43.625L46.4063 43.625V49.8125Z" fill="#EB5E28" fill-opacity="0.5"/>
<path d="M46.4063 6.5H52.5938V12.6875H46.4063V6.5Z" fill="#EB5E28" fill-opacity="0.5"/>
</svg>
