<svg version="1.1" xmlns="http://www.w3.org/2000/svg" viewBox="0 0 85.76095100900056 41.30973148977023" width="171.52190201800113" height="82.61946297954046">
  <!-- svg-source:excalidraw -->
  
  <defs>
    <style class="style-fonts">
      
    </style>
    
  </defs>
  <rect x="0" y="0" width="85.76095100900056" height="41.30973148977023" fill="transparent"></rect><g stroke-linecap="round"><g transform="translate(89.3232321698415 28.915478057130485) rotate(0 -47.2033867868613 -7.982512403522833)"><path d="M-13.56 0.11 C-18.36 -2.98, -32.9 -17.08, -43.84 -16.92 C-54.77 -16.76, -73.16 -1.93, -79.18 1.07 M-14.77 2.39 C-19.61 -1.15, -33.89 -18.9, -44.65 -18.92 C-55.41 -18.93, -73.52 -1.18, -79.32 2.32" stroke="#525252" stroke-width="1" fill="none"></path></g><g transform="translate(89.3232321698415 28.915478057130485) rotate(0 -47.2033867868613 -7.982512403522833)"><path d="M-68.38 -14.82 C-71.67 -10.64, -72.6 -5.37, -79.32 2.32 M-68.38 -14.82 C-70.7 -9.12, -74.4 -4.85, -79.32 2.32" stroke="#525252" stroke-width="1" fill="none"></path></g><g transform="translate(89.3232321698415 28.915478057130485) rotate(0 -47.2033867868613 -7.982512403522833)"><path d="M-59.93 -3.77 C-65.13 -1.96, -67.89 0.92, -79.32 2.32 M-59.93 -3.77 C-64.73 -1.28, -70.88 -0.2, -79.32 2.32" stroke="#525252" stroke-width="1" fill="none"></path></g></g><mask></mask></svg>