<svg width="96" height="96" viewBox="0 0 120 120" fill="none" xmlns="http://www.w3.org/2000/svg">
<g clip-path="url(#clip0_160_6)">
<rect width="120" height="120" fill="#EB5E28"/>
<path d="M-0.130681 56V-0.727274H6.73864V27.4148H7.40341L32.8864 -0.727274H41.8608L18.0398 24.8665L41.8608 56H33.5511L13.8295 29.6307L6.73864 37.608V56H-0.130681ZM56.4027 30.4062V56H49.8658V-0.727274H56.4027V20.1023H56.9567C57.9538 17.9048 59.4496 16.1598 61.4439 14.8672C63.4567 13.5561 66.1342 12.9006 69.4766 12.9006C72.3757 12.9006 74.9148 13.4822 77.0938 14.6456C79.2727 15.7905 80.9624 17.554 82.1626 19.9361C83.3814 22.2997 83.9908 25.3097 83.9908 28.9659V56H77.4538V29.4091C77.4538 26.0298 76.5767 23.4169 74.8224 21.5703C73.0866 19.7053 70.6768 18.7727 67.593 18.7727C65.451 18.7727 63.5305 19.2251 61.8317 20.13C60.1513 21.0348 58.8217 22.3551 57.843 24.0909C56.8828 25.8267 56.4027 27.9318 56.4027 30.4062Z" fill="#F9F7F3"/>
</g>
<defs>
<clipPath id="clip0_160_6">
<rect width="120" height="120" fill="white"/>
</clipPath>
</defs>
</svg>
